<?xml version="1.0" standalone="no"?>
<!DOCTYPE svg PUBLIC "-//W3C//DTD SVG 20010904//EN"
 "http://www.w3.org/TR/2001/REC-SVG-20010904/DTD/svg10.dtd">
<svg version="1.0" xmlns="http://www.w3.org/2000/svg"
 width="1108.000000pt" height="623.000000pt" viewBox="0 0 1108.000000 623.000000"
 preserveAspectRatio="xMidYMid meet">
<metadata>
Created by potrace 1.15, written by Peter Selinger 2001-2017
</metadata>
<g transform="translate(0.000000,623.000000) scale(0.100000,-0.100000)"
fill="#000000" stroke="none">
<path d="M1930 6220 c0 -6 -51 -10 -132 -10 -162 0 -244 -13 -317 -48 -121
-58 -217 -195 -228 -325 -4 -36 -11 -65 -19 -70 -21 -12 -20 -390 1 -410 13
-14 15 -316 17 -2529 l3 -2513 32 -68 c58 -122 174 -211 308 -236 44 -9 1083
-11 3995 -9 3828 3 3936 4 3985 22 118 44 212 134 258 246 l22 55 0 2775 c0
2663 -1 2777 -18 2827 -40 113 -131 205 -256 255 l-56 23 -3400 3 c-2223 1
-3403 6 -3409 12 -13 13 -356 13 -356 0 0 -5 -15 -10 -34 -10 -19 0 -38 5 -41
10 -4 6 -75 10 -181 10 -109 0 -174 -4 -174 -10z m3289 -345 c-3 -2 -59 -9
-125 -15 -1299 -117 -2420 -696 -2980 -1540 -164 -246 -299 -546 -363 -802
-57 -231 -66 -319 -66 -686 0 -259 -3 -332 -12 -332 -7 0 -12 -3 -12 -8 5 -27
-3 -52 -16 -52 -8 0 -15 6 -15 13 0 8 -4 7 -10 -3 -9 -13 -11 -13 -20 0 -11
17 -10 35 -20 -240 -3 -107 -7 648 -8 1678 -2 2003 -4 1911 46 1955 11 10 33
22 48 27 29 8 3561 14 3553 5z m4206 -5 c25 -6 52 -22 73 -44 l32 -36 -2
-2682 c-2 -1740 -5 -2319 -8 -1648 -3 569 -8 1023 -13 1008 -6 -22 -13 -28
-37 -28 -29 0 -49 28 -35 50 3 5 0 10 -7 10 -12 0 -13 47 -10 273 7 497 -45
779 -214 1148 -252 554 -642 977 -1219 1324 -142 86 -434 231 -585 291 -423
167 -910 280 -1394 324 -66 6 -122 13 -125 15 -9 10 3504 5 3544 -5z m-4451
-177 c45 -3 77 0 93 8 19 10 31 10 57 1 18 -7 57 -12 86 -12 29 0 68 5 86 12
26 9 38 9 57 -1 17 -9 47 -11 98 -7 41 3 85 6 99 6 14 0 58 -3 99 -6 51 -4 81
-2 98 7 19 10 31 10 57 1 18 -7 57 -12 86 -12 29 0 68 5 86 12 26 9 38 9 57
-1 24 -13 134 -11 189 4 30 8 68 -22 68 -55 0 -30 -37 -62 -68 -58 -26 3 -27
1 -30 -56 -3 -57 -3 -58 21 -52 32 8 77 -27 77 -59 0 -32 -45 -67 -76 -59 -23
6 -24 4 -24 -55 l0 -60 29 5 c21 5 34 1 50 -15 42 -42 15 -101 -46 -101 l-34
0 3 -57 c3 -56 4 -58 30 -55 31 4 68 -28 68 -58 0 -30 -37 -62 -68 -58 -26 3
-27 1 -30 -56 -3 -57 -3 -58 21 -52 35 9 79 -28 75 -63 -3 -25 -6 -26 -58 -26
l-55 0 1 38 1 37 -63 0 c-65 0 -71 -3 -55 -29 19 -30 -6 -51 -58 -51 -53 0
-66 13 -55 56 6 24 5 24 -60 24 -64 0 -66 -1 -56 -20 6 -12 8 -30 5 -40 -5
-17 -15 -20 -61 -20 -44 0 -54 3 -55 18 -2 23 -2 24 6 45 6 15 0 17 -58 17
l-64 0 1 -37 1 -38 -55 0 -55 0 1 38 1 37 -64 0 c-58 0 -64 -2 -58 -17 8 -21
8 -22 6 -45 -1 -15 -11 -18 -55 -18 -46 0 -56 3 -61 20 -3 10 -1 28 5 40 10
19 8 20 -56 20 -65 0 -66 0 -60 -24 11 -43 -2 -56 -55 -56 -52 0 -77 21 -58
51 16 26 10 29 -55 29 l-63 0 1 -37 1 -38 -55 0 c-54 0 -55 1 -55 29 0 40 43
73 74 57 20 -11 21 -10 21 53 l0 66 -29 -6 c-33 -7 -71 23 -71 56 0 32 37 63
71 58 l29 -5 0 62 0 62 -30 -5 c-61 -9 -92 56 -49 99 16 16 29 20 50 15 l29
-5 0 65 c0 63 -1 64 -21 53 -30 -16 -74 17 -74 56 0 39 44 72 74 56 20 -11 21
-10 21 53 l0 66 -29 -6 c-33 -7 -71 23 -71 56 0 33 38 63 68 55 15 -4 58 -9
96 -12z m3106 -1443 l0 -450 -122 0 c-192 -1 -4678 -1 -4815 -1 l-123 1 0 450
0 450 2530 0 2530 0 0 -450z m-2548 -657 c2 -5 2 -101 0 -215 l-3 -208 -1260
0 -1259 0 0 215 0 215 1259 0 c693 0 1261 -3 1263 -7z m2626 -158 c2 -88 0
-184 -3 -212 l-6 -53 -1260 0 -1259 0 0 215 0 215 1263 -2 1262 -3 3 -160z
m-5388 35 c0 -27 2 -50 5 -50 3 0 16 7 29 15 19 13 28 14 50 4 47 -22 47 -86
0 -108 -22 -9 -31 -9 -50 4 -13 8 -26 15 -29 15 -3 0 -5 -36 -5 -80 0 -44 3
-80 6 -80 3 0 12 7 20 15 33 32 94 1 94 -48 0 -48 -45 -67 -102 -42 -16 6 -18
0 -18 -69 0 -69 9 -92 25 -66 10 16 57 12 77 -7 24 -21 23 -58 -2 -83 -24 -24
-53 -26 -70 -5 -22 26 -30 16 -30 -35 l0 -50 -450 0 -450 0 -1 63 c-2 263 2
640 6 648 4 5 188 9 451 9 l444 0 0 -50z m6455 41 c4 -8 8 -385 6 -648 l-1
-63 -450 0 -450 0 0 50 c0 51 -8 61 -30 35 -16 -19 -44 -19 -59 -1 -7 8 -11
34 -9 58 3 36 7 44 26 46 13 2 34 -4 48 -12 l24 -16 0 85 0 85 -24 -16 c-14
-8 -35 -14 -48 -12 -19 2 -23 10 -26 46 -2 24 2 50 9 58 15 18 43 18 59 -1 24
-28 30 -15 30 65 0 44 -2 80 -5 80 -3 0 -16 -7 -30 -16 -38 -25 -65 -4 -65 51
0 55 27 76 65 51 14 -9 27 -16 30 -16 3 0 5 23 5 50 l0 50 444 0 c263 0 447
-4 451 -9z m-3695 -621 l0 -220 -1260 0 -1260 0 0 220 0 220 1260 0 1260 0 0
-220z m2628 50 c2 -91 0 -189 -3 -217 l-6 -53 -1260 0 -1259 0 0 220 0 220
1263 -2 1262 -3 3 -165z m-2628 -550 l0 -220 -1260 0 -1260 0 0 220 0 220
1260 0 1260 0 0 -220z m2628 50 c2 -91 0 -189 -3 -217 l-6 -53 -1260 0 -1259
0 0 220 0 220 1263 -2 1262 -3 3 -165z m-2628 -550 l0 -220 -1260 0 -1260 0 0
220 0 220 1260 0 1260 0 0 -220z m2625 0 l0 -215 -1262 -3 -1263 -2 0 220 0
220 1263 -2 1262 -3 0 -215z m-4595 -295 c6 -8 9 -23 5 -35 -6 -19 -2 -20 60
-20 62 0 66 1 60 20 -10 31 12 50 56 50 43 0 64 -22 48 -52 -9 -16 -4 -18 58
-18 l68 0 0 33 c0 28 4 32 29 35 15 2 40 1 53 -3 21 -5 24 -11 21 -35 l-5 -30
65 0 c54 0 63 2 58 16 -12 30 12 54 53 54 44 0 66 -19 56 -50 -6 -19 -2 -20
60 -20 62 0 66 1 60 20 -10 31 12 50 56 50 43 0 64 -23 48 -53 -9 -15 -3 -17
58 -17 l68 0 0 33 c0 32 0 32 50 32 50 0 50 0 50 -32 0 -28 4 -33 22 -33 l23
0 0 -175 0 -175 -577 0 c-385 0 -591 4 -618 11 -126 34 -168 199 -72 287 l25
23 -24 24 c-27 27 -30 45 -12 63 17 17 83 15 98 -3z m1360 0 c6 -8 9 -23 5
-35 -6 -19 -2 -20 58 -20 62 0 64 1 60 23 -6 32 18 49 64 45 36 -3 38 -5 38
-35 l0 -33 65 0 65 0 0 33 c0 30 2 32 38 35 46 4 70 -13 64 -45 -4 -22 -2 -23
60 -23 60 0 64 1 58 20 -10 30 12 50 55 50 43 0 65 -20 55 -50 -6 -19 -2 -20
58 -20 62 0 64 1 60 23 -6 32 18 49 64 45 36 -3 38 -5 38 -35 l0 -33 65 0 65
0 0 33 c0 30 2 32 38 35 47 4 70 -13 62 -45 -5 -22 -3 -23 60 -23 62 0 66 1
60 20 -4 12 -1 27 5 35 16 20 84 19 100 0 17 -21 -1 -61 -35 -77 -22 -10 -25
-17 -25 -65 0 -46 3 -53 20 -53 11 0 27 -11 36 -25 21 -33 7 -71 -30 -81 -22
-5 -25 -12 -28 -52 l-3 -47 -660 0 -660 0 -3 46 c-3 43 -6 47 -33 53 -41 8
-58 46 -35 81 10 15 26 25 41 25 24 0 25 3 25 61 0 39 -4 58 -10 54 -15 -9
-57 20 -65 45 -10 30 12 50 55 50 21 0 43 -7 50 -15z m1585 -22 l0 -33 68 0
c62 0 67 2 58 18 -16 30 5 52 48 52 44 0 66 -19 56 -50 -6 -19 -2 -20 60 -20
62 0 66 1 60 20 -10 31 12 50 56 50 41 0 65 -24 53 -54 -5 -14 4 -16 59 -16
62 0 64 1 60 23 -6 32 18 49 64 45 36 -3 38 -5 38 -35 l0 -33 68 0 c61 0 67 2
58 17 -16 30 5 53 48 53 44 0 66 -19 56 -50 -6 -19 -2 -20 60 -20 63 0 65 1
60 23 -8 32 15 49 61 45 52 -4 65 -28 37 -66 l-22 -30 21 -18 c28 -25 58 -92
58 -129 0 -46 -34 -109 -76 -141 l-37 -29 -606 0 -606 0 0 170 c0 166 0 170
21 173 16 2 20 8 17 22 -10 39 4 51 54 48 47 -3 48 -4 48 -35z m-287 -575 c3
-40 6 -47 28 -52 37 -10 51 -48 30 -81 -9 -14 -25 -25 -36 -25 -17 0 -20 -7
-20 -52 1 -49 4 -55 33 -73 38 -24 44 -47 23 -80 -34 -51 -119 -13 -101 45 6
19 2 20 -58 20 -63 0 -64 0 -59 -25 8 -45 -47 -82 -84 -57 -21 14 -33 47 -23
65 9 15 3 17 -61 17 -64 0 -70 -2 -61 -17 10 -18 -2 -51 -23 -65 -37 -25 -92
12 -84 57 5 25 4 25 -59 25 -60 0 -64 -1 -58 -20 10 -32 -20 -70 -55 -70 -35
0 -65 38 -55 70 6 19 2 20 -58 20 -63 0 -64 0 -59 -25 8 -45 -47 -82 -84 -57
-21 14 -33 46 -23 64 9 16 4 18 -61 18 -64 0 -70 -2 -62 -17 11 -22 5 -44 -16
-60 -39 -32 -99 3 -90 52 5 25 4 25 -57 25 -58 0 -63 -2 -58 -20 8 -32 -23
-70 -57 -70 -30 0 -60 30 -60 61 0 22 49 62 67 55 10 -4 13 9 13 54 0 56 -1
60 -23 60 -66 0 -73 86 -9 105 29 8 32 13 32 50 0 23 3 45 7 48 3 4 302 6 662
5 l656 -3 3 -47z"/>
<path d="M4940 5613 c0 -32 -3 -226 -7 -430 l-6 -373 624 0 624 0 -3 427 c-2
235 -4 429 -6 431 -2 1 -15 0 -29 -3 -25 -7 -26 -7 -10 -40 33 -69 -13 -183
-93 -232 -37 -21 -49 -23 -198 -23 -144 0 -162 2 -193 21 l-34 21 25 -36 c58
-86 38 -264 -35 -301 -79 -41 -151 5 -173 110 -7 31 5 136 19 168 7 16 -5 17
-162 17 l-169 0 -46 29 c-78 50 -119 162 -83 230 14 27 13 29 -8 35 -36 10
-37 8 -37 -51z"/>
<path d="M5505 5350 c-36 -40 -33 -192 6 -231 25 -25 45 -24 74 6 23 22 25 32
25 107 0 46 -6 94 -13 108 -17 34 -66 39 -92 10z"/>
<path d="M3020 3385 l0 -205 1250 0 1250 0 0 205 0 205 -1250 0 -1250 0 0
-205z m2480 90 l0 -95 -519 0 -518 0 -7 32 c-3 18 -23 47 -45 69 -77 73 -205
73 -282 0 -22 -22 -42 -51 -45 -69 l-6 -32 -519 0 -519 0 0 95 0 95 1230 0
1230 0 0 -95z m-1169 34 c34 -12 89 -55 89 -71 0 -4 -23 -8 -50 -8 -36 0 -52
4 -56 15 -14 35 -24 10 -24 -60 0 -60 -3 -75 -15 -75 -11 0 -15 13 -15 54 0
52 -1 54 -31 60 -17 3 -49 6 -70 6 -46 0 -48 8 -11 42 48 45 117 59 183 37z
m-251 -148 c0 -4 16 -29 35 -55 l36 -46 -556 0 -555 0 0 55 0 55 520 0 c286 0
520 -4 520 -9z m1398 3 c18 -5 22 -13 22 -49 0 -36 -4 -44 -22 -49 -13 -3
-263 -6 -555 -6 l-533 0 35 46 c19 25 35 50 35 55 0 10 980 13 1018 3z"/>
<path d="M5640 3385 l0 -205 1250 0 1250 0 0 205 0 205 -1250 0 -1250 0 0
-205z m2480 90 l0 -95 -519 0 -518 0 -7 32 c-9 48 -74 104 -135 117 -75 16
-142 -1 -192 -48 -22 -22 -42 -51 -45 -69 l-6 -32 -519 0 -519 0 0 95 0 95
1230 0 1230 0 0 -95z m-1169 34 c34 -12 89 -55 89 -71 0 -4 -18 -8 -39 -8 -27
0 -41 5 -45 17 -5 12 -9 14 -18 5 -7 -7 -25 -12 -40 -12 -17 0 -28 -5 -28 -14
0 -9 7 -12 18 -10 21 6 48 -14 56 -42 9 -30 -23 -66 -58 -66 -34 0 -65 27 -50
42 8 8 15 6 24 -5 27 -32 68 -8 53 31 -4 12 -14 14 -39 9 -31 -5 -34 -4 -34
20 0 23 -3 25 -50 25 -27 0 -50 4 -50 8 0 5 12 20 28 34 48 45 117 59 183 37z
m-251 -148 c0 -4 16 -29 35 -55 l36 -46 -556 0 -555 0 0 55 0 55 520 0 c286 0
520 -4 520 -9z m1420 -46 l0 -55 -555 0 -555 0 35 46 c19 25 35 50 35 55 0 5
209 9 520 9 l520 0 0 -55z"/>
<path d="M1897 3408 c-4 -46 -7 -197 -7 -335 l0 -253 430 0 430 0 0 335 0 335
-41 0 c-37 0 -39 -1 -25 -16 10 -9 16 -33 16 -58 0 -58 -33 -105 -95 -134 -41
-20 -61 -23 -129 -20 -45 2 -90 8 -101 13 -20 8 -20 8 -1 -13 37 -43 33 -175
-6 -212 -47 -43 -108 -17 -128 55 -12 44 -8 96 14 145 5 13 -5 14 -71 12 -43
-2 -94 1 -115 7 -97 30 -161 148 -108 201 l20 20 -39 0 -38 0 -6 -82z"/>
<path d="M8348 3163 c-2 -181 -2 -331 0 -335 2 -5 196 -8 433 -8 l429 0 0 335
0 335 -45 0 -45 0 20 -20 c48 -48 6 -146 -82 -191 -48 -25 -180 -27 -227 -3
-18 9 -35 14 -37 11 -3 -3 3 -8 14 -11 45 -15 67 -122 38 -191 -25 -59 -85
-73 -126 -30 -30 32 -39 123 -18 175 l15 35 -91 -2 c-77 -2 -98 1 -136 20 -57
28 -90 77 -90 131 0 45 7 60 30 69 8 3 -6 6 -32 6 l-47 1 -3 -327z"/>
<path d="M3022 2888 l3 -203 1245 0 1245 0 3 203 2 202 -1250 0 -1250 0 2
-202z m2478 98 c0 -76 -3 -95 -16 -100 -9 -3 -242 -6 -519 -6 l-502 0 -7 31
c-3 17 -23 48 -44 69 -77 77 -221 74 -291 -6 -18 -20 -34 -49 -38 -65 l-5 -29
-519 0 -519 0 0 100 0 100 1230 0 1230 0 0 -94z m-1156 20 c33 -14 76 -52 76
-68 0 -15 -63 -8 -83 10 -20 16 -20 16 -13 -2 10 -29 -2 -53 -40 -76 -41 -26
-45 -44 -7 -37 30 6 53 -1 53 -14 0 -5 -27 -9 -60 -9 -83 0 -81 21 8 92 13 10
19 24 16 33 -8 21 -31 19 -46 -5 -13 -21 -38 -27 -38 -10 0 6 -20 10 -45 10
-25 0 -45 4 -45 8 0 13 53 60 80 71 37 14 106 13 144 -3z m-264 -145 c0 -4 16
-29 35 -55 l36 -46 -556 0 -555 0 0 55 0 55 520 0 c286 0 520 -4 520 -9z
m1418 -42 l3 -46 -38 -7 c-21 -3 -271 -6 -556 -6 l-518 0 36 46 c19 26 35 51
35 56 0 4 231 7 518 6 l517 -3 3 -46z"/>
<path d="M5642 2888 l3 -203 1245 0 1245 0 3 203 2 202 -1250 0 -1250 0 2
-202z m2478 92 l0 -100 -519 0 -518 0 -7 31 c-3 17 -23 48 -44 69 -77 77 -221
74 -291 -6 -18 -20 -34 -49 -38 -65 l-5 -29 -519 0 -519 0 0 100 0 100 1230 0
1230 0 0 -100z m-1156 26 c33 -14 76 -52 76 -68 0 -15 -63 -8 -82 9 -17 15
-18 15 -18 -5 0 -25 -18 -29 -26 -7 -9 22 -31 18 -45 -6 -9 -19 -8 -20 10 -14
11 3 29 1 40 -4 48 -26 27 -101 -29 -101 -37 0 -60 32 -60 82 l0 38 -45 0
c-25 0 -45 4 -45 8 0 13 53 60 80 71 37 14 106 13 144 -3z m-264 -145 c0 -4
16 -29 35 -55 l36 -46 -556 0 -555 0 0 55 0 55 520 0 c286 0 520 -4 520 -9z
m1420 -46 l0 -55 -555 0 -556 0 36 46 c19 26 35 51 35 55 0 5 234 9 520 9
l520 0 0 -55z"/>
<path d="M3020 2390 l0 -200 1250 0 1250 0 0 200 0 200 -1250 0 -1250 0 0
-200z m2480 96 l0 -94 -67 -4 c-38 -2 -270 -3 -518 -3 l-449 0 -10 33 c-5 18
-26 48 -47 67 -103 93 -266 62 -320 -60 l-18 -41 -513 0 -513 1 -3 98 -3 97
1231 0 1230 0 0 -94z m-1140 14 c34 -17 60 -45 60 -64 0 -14 -69 -5 -81 10
-12 15 -14 13 -21 -17 -3 -18 -2 -42 4 -52 16 -31 -15 -67 -57 -67 -28 0 -38
5 -47 25 -16 35 -1 45 22 15 16 -20 22 -23 37 -14 25 15 22 38 -4 42 -29 4
-29 16 -1 34 12 8 18 19 14 26 -10 17 -36 15 -42 -3 -6 -15 -34 -21 -34 -7 0
4 -20 6 -45 4 -47 -4 -54 3 -32 30 44 58 153 76 227 38z m-269 -152 c6 -13 21
-33 32 -45 11 -13 18 -25 16 -27 -3 -3 -250 -6 -549 -7 l-545 -1 -3 51 -3 51
520 0 520 0 12 -22z m1407 -30 l3 -48 -551 0 c-304 0 -550 3 -548 8 2 4 17 26
33 49 l30 42 515 -2 515 -2 3 -47z"/>
<path d="M5640 2390 l0 -200 1250 0 1250 0 0 200 0 200 -1250 0 -1250 0 0
-200z m2478 93 l-3 -98 -515 0 -514 0 -10 33 c-5 18 -26 48 -47 67 -103 93
-266 62 -320 -60 l-18 -41 -513 0 -513 1 -3 98 -3 97 1231 0 1231 0 -3 -97z
m-1138 17 c34 -17 60 -45 60 -64 0 -3 -15 -6 -34 -6 -26 0 -35 5 -40 23 -5 20
-8 18 -33 -23 -15 -25 -32 -60 -39 -80 -7 -19 -17 -36 -23 -38 -19 -6 -12 42
14 87 14 23 25 45 25 48 0 3 -17 2 -37 -1 -78 -14 -133 -18 -133 -9 0 16 24
41 60 62 46 28 127 28 180 1z m-269 -152 c6 -13 21 -33 32 -45 11 -13 18 -25
16 -27 -3 -3 -250 -6 -549 -7 l-545 -1 -3 51 -3 51 520 0 520 0 12 -22z m1407
-29 l-3 -51 -545 1 c-299 1 -546 4 -548 5 -2 2 12 24 30 49 l33 46 518 0 518
1 -3 -51z"/>
<path d="M3020 1890 l0 -200 1250 0 1250 0 0 200 0 200 -1250 0 -1250 0 0
-200z m2480 95 l0 -95 -519 0 -519 0 -7 30 c-14 65 -102 120 -191 120 -77 -1
-166 -61 -179 -122 l-7 -28 -519 0 -519 0 0 95 0 95 1230 0 1230 0 0 -95z
m-1144 19 c32 -15 64 -48 64 -66 0 -5 -20 -8 -43 -8 -36 0 -46 4 -55 23 -10
21 -11 21 -13 2 -7 -59 -5 -77 7 -82 19 -7 18 -23 -1 -23 -8 0 -15 -9 -15 -20
0 -11 -4 -20 -10 -20 -5 0 -10 9 -10 20 0 16 -7 20 -35 20 -28 0 -35 4 -35 19
0 10 7 24 15 31 27 22 16 30 -45 30 -64 0 -70 6 -42 39 42 51 149 68 218 35z
m-265 -156 c6 -13 25 -38 42 -56 l31 -32 -559 2 -560 3 -3 53 -3 52 520 0 520
0 12 -22z m1409 -27 l0 -48 -46 -7 c-26 -3 -279 -6 -562 -6 l-516 0 31 33 c17
17 36 42 42 55 l12 22 519 0 520 0 0 -49z"/>
<path d="M5640 1890 l0 -200 1250 0 1250 0 0 200 0 200 -1250 0 -1250 0 0
-200z m2480 125 l0 -65 -1230 0 -1230 0 0 65 0 65 1230 0 1230 0 0 -65z"/>
<path d="M3455 1389 c-10 -31 3 -83 27 -114 43 -55 39 -55 664 -55 l577 0 -7
53 c-3 28 -6 71 -6 95 l0 42 -94 0 -95 0 -3 -50 c-3 -57 -21 -68 -26 -15 -2
22 -8 35 -18 35 -8 0 -14 7 -14 15 0 13 -22 15 -138 15 -166 0 -190 -8 -194
-63 -4 -48 -22 -49 -26 0 -6 61 -62 89 -62 31 0 -61 -9 -75 -42 -73 -30 2 -47
17 -49 45 -1 8 -4 2 -8 -14 -5 -25 -11 -30 -41 -32 -56 -4 -73 4 -67 32 6 33
-2 30 -14 -6 -13 -35 -27 -38 -38 -8 l-8 22 -5 -22 c-9 -34 -26 -26 -39 18
-13 42 -5 65 12 40 8 -11 12 -12 16 -2 6 15 33 16 33 1 0 -8 5 -7 15 1 9 7 18
10 22 7 3 -4 14 -2 25 4 15 8 24 7 39 -7 12 -11 19 -13 19 -5 0 7 11 12 28 11
50 -4 73 0 67 10 -8 12 -305 14 -305 1 0 -5 7 -27 14 -49 9 -25 11 -44 5 -47
-5 -4 -12 1 -15 9 -8 21 -33 20 -57 -1 -22 -20 -22 -25 -2 65 l8 32 -96 0
c-88 0 -96 -2 -102 -21z m766 -27 c0 -13 3 -11 9 6 9 21 22 28 45 22 6 -2 39
-3 75 -4 l65 -1 3 -42 c2 -26 -1 -43 -7 -43 -6 0 -11 11 -11 24 0 34 -18 42
-22 11 -4 -33 -22 -33 -26 0 -4 33 -20 32 -24 -2 -3 -23 -8 -26 -43 -29 -22
-1 -46 2 -52 8 -9 7 -17 7 -28 -2 -21 -17 -54 -3 -61 27 -9 35 28 68 57 53 10
-6 19 -18 20 -28z"/>
<path d="M4920 1315 l0 -95 635 0 635 0 0 79 c0 44 -3 86 -6 95 -9 24 -332 24
-341 1 -3 -9 -2 -19 2 -23 4 -4 10 -1 12 6 6 15 63 16 63 1 0 -8 4 -8 14 0 8
7 27 11 43 9 25 -3 28 -7 28 -40 0 -44 -18 -56 -23 -15 -4 34 -22 36 -22 3 0
-27 -16 -43 -23 -24 -4 10 -7 11 -18 1 -18 -18 -39 -16 -61 4 -15 13 -18 14
-18 2 0 -19 -52 -19 -58 -1 -3 10 -8 10 -22 -3 -25 -22 -55 -15 -54 12 0 12
-3 20 -8 17 -4 -3 -8 -11 -8 -19 0 -22 -39 -29 -60 -10 -13 12 -19 13 -22 4
-6 -19 -51 -22 -65 -3 -14 19 -35 10 -27 -11 5 -12 0 -14 -27 -9 -52 10 -71
32 -67 76 l4 38 -118 0 c-112 0 -118 -1 -118 -20 0 -19 2 -19 23 -6 13 9 28
12 36 7 7 -5 22 -6 32 -4 13 4 19 0 19 -13 0 -17 1 -16 15 2 15 19 15 19 30 0
13 -17 15 -18 15 -3 0 9 7 17 15 17 16 0 13 -35 -8 -74 -9 -19 -10 -19 -23 -1
-14 18 -14 18 -28 -1 -14 -18 -15 -18 -27 11 -11 27 -13 28 -16 8 -2 -12 -11
-24 -20 -27 -21 -8 -53 2 -53 17 0 6 -6 2 -14 -8 -12 -17 -14 -16 -37 14 l-24
33 -5 -29 c-8 -46 -25 -32 -28 25 l-3 52 -85 0 -84 0 0 -95z"/>
<path d="M6396 1394 c-3 -9 -6 -51 -6 -95 l0 -79 575 0 c612 0 616 0 658 48
22 25 38 88 30 120 -5 21 -10 22 -89 22 -74 0 -84 -2 -84 -18 0 -10 -7 -28
-16 -40 -14 -20 -14 -22 1 -22 28 0 10 -25 -19 -28 -45 -6 -54 13 -23 46 34
35 34 46 2 38 -18 -5 -25 -2 -25 9 0 13 -22 15 -147 15 -166 -1 -180 -5 -185
-63 -4 -49 -22 -48 -26 0 -2 30 -9 41 -29 51 -40 18 -42 16 -45 -40 -3 -45 -6
-52 -27 -55 -31 -4 -51 13 -51 45 0 31 -17 18 -22 -17 -2 -20 -9 -24 -45 -27
-32 -2 -45 1 -52 14 -9 16 -11 16 -24 -2 -14 -19 -14 -19 -25 0 -11 19 -11 19
-25 0 -14 -19 -14 -19 -24 0 -21 39 -24 74 -8 74 8 0 15 -8 15 -17 0 -15 2
-14 15 3 15 19 15 19 30 0 13 -17 15 -18 15 -3 0 11 8 17 23 17 12 0 30 0 40
0 9 0 37 0 62 0 63 0 75 2 75 12 0 4 -70 8 -155 8 -85 0 -155 -2 -155 -4 0 -2
7 -23 15 -47 10 -28 12 -46 6 -52 -7 -7 -13 -5 -17 6 -8 22 -40 22 -48 0 -5
-11 -10 -13 -17 -6 -7 7 -5 22 5 48 9 21 16 41 16 46 0 5 -42 9 -94 9 -76 0
-95 -3 -100 -16z m782 -6 c20 13 24 13 42 -3 12 -10 20 -13 20 -7 0 8 20 12
55 12 49 0 55 -2 61 -24 7 -30 2 -57 -11 -57 -5 0 -11 12 -13 26 -4 32 -22 33
-22 1 0 -39 -19 -41 -27 -4 l-7 33 -6 -29 c-4 -27 -9 -30 -45 -31 -51 -2 -65
3 -66 24 0 11 -3 9 -9 -6 -18 -44 -70 -22 -70 29 0 35 27 52 55 34 17 -11 24
-11 43 2z"/>
<path d="M4920 825 l0 -95 636 0 635 0 -2 83 c-1 45 -4 88 -7 95 -3 9 -71 12
-293 12 l-289 0 0 -24 c0 -14 4 -27 9 -30 5 -3 8 2 7 12 -2 24 44 29 61 6 12
-16 13 -16 13 -1 0 14 10 17 54 17 34 0 56 -5 59 -12 4 -10 7 -10 18 0 23 21
58 15 65 -13 12 -47 -20 -80 -57 -57 -12 8 -20 8 -24 2 -10 -16 -25 -1 -25 26
0 13 -4 24 -10 24 -5 0 -10 -13 -10 -30 0 -40 -17 -38 -28 3 l-8 32 -7 -34
c-7 -36 -21 -34 -30 4 -4 15 -5 13 -6 -7 -1 -24 -5 -28 -32 -28 -23 0 -32 5
-36 20 l-6 21 -14 -21 c-34 -48 -100 -8 -90 55 5 33 4 36 -16 33 -19 -3 -22
-10 -25 -55 -3 -50 -5 -53 -29 -53 -15 0 -35 7 -45 17 -17 15 -18 15 -18 0 0
-10 -4 -17 -10 -17 -5 0 -10 14 -10 30 0 37 -18 40 -22 3 -6 -48 -28 -39 -28
11 0 44 1 46 28 46 15 0 34 -6 41 -12 11 -10 14 -10 18 0 3 6 13 12 24 12 10
0 19 5 19 10 0 6 -28 10 -64 10 -36 0 -68 -4 -71 -10 -3 -5 -17 -10 -31 -10
-13 0 -24 -4 -24 -10 0 -5 11 -10 25 -10 14 0 25 -4 25 -10 0 -5 -11 -10 -25
-10 -14 0 -25 -4 -25 -10 0 -5 11 -10 25 -10 16 0 25 -6 25 -16 0 -12 -9 -14
-37 -12 l-38 3 -3 53 -3 52 -145 0 -144 0 0 -95z"/>
</g>
</svg>
